<?xml version="1.0" encoding="UTF-8" standalone="no"?>
<svg
   width="24px"
   height="24px"
   viewBox="0 0 24 24"
   data-name="Layer 1"
   version="1.1"
   id="svg4"
   sodipodi:docname="arrow-right.svg"
   inkscape:version="1.1.1 (1:1.1+202109281944+c3084ef5ed)"
   xmlns:inkscape="http://www.inkscape.org/namespaces/inkscape"
   xmlns:sodipodi="http://sodipodi.sourceforge.net/DTD/sodipodi-0.dtd"
   xmlns="http://www.w3.org/2000/svg"
   xmlns:svg="http://www.w3.org/2000/svg">
  <defs
     id="defs8" />
  <sodipodi:namedview
     id="namedview6"
     pagecolor="#ffffff"
     bordercolor="#666666"
     borderopacity="1.0"
     inkscape:pageshadow="2"
     inkscape:pageopacity="0.0"
     inkscape:pagecheckerboard="0"
     showgrid="false"
     inkscape:zoom="13.729167"
     inkscape:cx="5.2443096"
     inkscape:cy="15.368741"
     inkscape:window-width="1600"
     inkscape:window-height="839"
     inkscape:window-x="0"
     inkscape:window-y="0"
     inkscape:window-maximized="1"
     inkscape:current-layer="svg4" />
  <path
     d="m 23.563281,11.255984 a 1.9528556,1.9557899 0 0 0 -0.4101,-0.64541 L 13.388903,0.83162416 A 1.960846,1.9637923 0 0 0 10.615848,3.6088458 l 6.444424,6.4345482 H 2.2380978 a 1.9528557,1.95579 0 0 0 0,3.91158 H 17.060272 l -6.444424,6.434549 a 1.9528556,1.9557899 0 0 0 0,2.777222 1.9528556,1.9557899 0 0 0 2.773055,0 l 9.764278,-9.77895 a 1.9528556,1.9557899 0 0 0 0.4101,-0.64541 1.9528556,1.9557899 0 0 0 0,-1.486401 z"
     id="path2"
     style="stroke-width:1.95432" />
</svg>
