<?xml version="1.0" encoding="UTF-8" standalone="no"?>
<svg
   width="1446.8662"
   height="1301.1278"
   viewBox="0 0 1446.8662 1301.1278"
   version="1.1"
   id="svg14968"
   sodipodi:docname="chat.svg"
   inkscape:version="1.1.1 (1:1.1+202109281944+c3084ef5ed)"
   xmlns:inkscape="http://www.inkscape.org/namespaces/inkscape"
   xmlns:sodipodi="http://sodipodi.sourceforge.net/DTD/sodipodi-0.dtd"
   xmlns="http://www.w3.org/2000/svg"
   xmlns:svg="http://www.w3.org/2000/svg">
  <defs
     id="defs14972" />
  <sodipodi:namedview
     id="namedview14970"
     pagecolor="#ffffff"
     bordercolor="#666666"
     borderopacity="1.0"
     inkscape:pageshadow="2"
     inkscape:pageopacity="0.0"
     inkscape:pagecheckerboard="0"
     showgrid="false"
     inkscape:zoom="0.28076172"
     inkscape:cx="324.11826"
     inkscape:cy="837.00869"
     inkscape:window-width="1600"
     inkscape:window-height="839"
     inkscape:window-x="0"
     inkscape:window-y="0"
     inkscape:window-maximized="1"
     inkscape:current-layer="layer1" />
  <g
     inkscape:groupmode="layer"
     id="layer1"
     inkscape:label="behind">
    <path
       id="path15031"
       style="stroke-width:1.05182"
       d="m 486.86523,20 c -35.343,0 -64,31.703553 -64,70.804688 V 399.75586 h 64 V 90.804688 H 1382.8652 V 729.69922 H 1191.3281 V 892.23438 L 1042.0801,729.69922 H 960 v 70.82226 h 55.873 l 185.0235,201.49612 c 5.9796,6.5171 14.0398,10.1668 22.4336,10.1601 4.2472,-0 8.4514,-0.9421 12.3672,-2.7617 11.8952,-5.5046 19.6308,-18.37569 19.6308,-32.64061 V 800.52148 h 127.5371 c 35.344,0 64,-31.70244 64,-70.80468 V 90.804688 C 1446.8652,51.702447 1418.2092,20 1382.8652,20 Z m 160,213.97461 c -17.664,0 -32,15.86007 -32,35.40234 0,19.54227 14.336,35.40235 32,35.40235 h 575.99997 c 17.664,0 32,-15.86008 32,-35.40235 0,-19.54227 -14.336,-35.40234 -32,-35.40234 z m 359.99997,141.60937 c -17.66398,0 -31.99997,15.86008 -31.99997,35.40235 0,19.54227 14.33599,35.40429 31.99997,35.40429 h 216 c 17.664,0 32,-15.86202 32,-35.40429 0,-19.54227 -14.336,-35.40235 -32,-35.40235 z m -7.99997,141.61133 c -17.664,0 -32,15.86008 -32,35.40235 0,19.54227 14.336,35.40234 32,35.40234 h 223.99997 c 17.664,0 32,-15.86007 32,-35.40234 0,-19.54227 -14.336,-35.40235 -32,-35.40235 z"
       sodipodi:nodetypes="ssccccccccccccccscssssssssssssssssssssssssss" />
  </g>
  <g
     inkscape:groupmode="layer"
     id="layer2"
     inkscape:label="front"
     style="display:inline">
    <path
       d="M 959.999,348.95047 H 64 c -35.344,0 -64,31.70308 -64,70.80532 v 598.91181 c 0,39.1023 28.656,70.8054 64,70.8054 h 127.536 v 176.2521 c -0.005,14.2649 7.73679,27.1367 19.632,32.6413 3.91577,1.8196 8.11985,2.7583 12.367,2.7614 8.39381,0.01 16.45243,-3.6435 22.432,-10.1606 L 430.991,1089.473 h 529.008 c 35.343,0 64,-31.7031 64,-70.8054 V 419.75579 c 0,-39.10113 -28.657,-70.80532 -64,-70.80532 z M 960,1018.6499 H 404.784 L 255.536,1181.1836 V 1018.6499 H 64 V 419.75579 H 960 Z M 224,735.34013 h 576 c 17.664,0 32,-15.86039 32,-35.40266 0,-19.54227 -14.336,-35.40266 -32,-35.40266 H 224 c -17.664,0 -32,15.86039 -32,35.40266 0,19.54227 14.336,35.40266 32,35.40266 z m 0,-141.61065 h 576 c 17.664,0 32,-15.86039 32,-35.40266 0,-19.54227 -14.336,-35.40266 -32,-35.40266 H 224 c -17.664,0 -32,15.86039 -32,35.40266 0,19.54227 14.336,35.40266 32,35.40266 z m 0,283.2213 h 384 c 17.664,0 32,-15.86039 32,-35.40266 0,-19.54227 -14.336,-35.40266 -32,-35.40266 H 224 c -17.664,0 -32,15.86039 -32,35.40266 0,19.54227 14.336,35.40266 32,35.40266 z"
       id="path14966"
       style="stroke-width:1.05182"
       sodipodi:nodetypes="sssssccccccssssccccccccsssssssssssssssssssss" />
  </g>
</svg>
