<?xml version="1.0" encoding="UTF-8" standalone="no"?>
<!-- Generator: Adobe Illustrator 19.0.0, SVG Export Plug-In . SVG Version: 6.00 Build 0)  -->

<svg
   version="1.1"
   id="Layer_1"
   x="0px"
   y="0px"
   viewBox="0 0 512 512"
   style="enable-background:new 0 0 512 512;"
   xml:space="preserve"
   sodipodi:docname="share.svg"
   inkscape:version="1.1.1 (1:1.1+202109281944+c3084ef5ed)"
   xmlns:inkscape="http://www.inkscape.org/namespaces/inkscape"
   xmlns:sodipodi="http://sodipodi.sourceforge.net/DTD/sodipodi-0.dtd"
   xmlns="http://www.w3.org/2000/svg"
   xmlns:svg="http://www.w3.org/2000/svg"><defs
   id="defs41" /><sodipodi:namedview
   id="namedview39"
   pagecolor="#ffffff"
   bordercolor="#666666"
   borderopacity="1.0"
   inkscape:pageshadow="2"
   inkscape:pageopacity="0.0"
   inkscape:pagecheckerboard="0"
   showgrid="false"
   inkscape:zoom="1.2871094"
   inkscape:cx="255.61153"
   inkscape:cy="194.23369"
   inkscape:window-width="1600"
   inkscape:window-height="839"
   inkscape:window-x="0"
   inkscape:window-y="0"
   inkscape:window-maximized="1"
   inkscape:current-layer="Layer_1" />
<g
   id="g6"
   transform="matrix(-1,0,0,1,512,0)">
	<g
   id="g4">
		<path
   d="m 418.056,162.056 c -30.616,0 -57.736,14.712 -74.88,37.384 L 184.512,118.6 c 2.136,-7.872 3.376,-16.104 3.376,-24.656 C 187.888,42.064 145.824,0 93.944,0 42.064,0 0,42.064 0,93.944 c 0,51.88 42.064,93.944 93.944,93.944 31.912,0 60.056,-15.944 77.04,-40.264 l 157.44,80.216 c -2.792,8.888 -4.304,18.344 -4.304,28.16 0,9.816 1.512,19.272 4.304,28.16 l -157.44,80.224 C 154.008,340.064 125.856,324.112 93.944,324.112 42.064,324.112 0,366.176 0,418.056 0,469.936 42.064,512 93.944,512 c 51.88,0 93.944,-42.064 93.944,-93.944 0,-8.544 -1.24,-16.784 -3.376,-24.648 L 343.176,312.56 c 17.152,22.672 44.264,37.384 74.88,37.384 51.88,0 93.944,-42.064 93.944,-93.944 0,-51.888 -42.064,-93.944 -93.944,-93.944 z M 93.944,155.888 C 59.784,155.888 32,128.096 32,93.944 32,59.784 59.784,32 93.944,32 c 34.152,0 61.944,27.784 61.944,61.944 0,34.152 -27.792,61.944 -61.944,61.944 z m 0,324.112 C 59.784,480 32,452.216 32,418.056 c 0,-34.152 27.792,-61.944 61.944,-61.944 34.152,0 61.944,27.792 61.944,61.944 0,34.16 -27.792,61.944 -61.944,61.944 z M 418.056,317.944 c -34.152,0 -61.944,-27.792 -61.944,-61.944 0,-34.16 27.792,-61.944 61.944,-61.944 34.16,0 61.944,27.784 61.944,61.944 0,34.152 -27.784,61.944 -61.944,61.944 z"
   id="path2" />
	</g>
</g>
<g
   id="g8">
</g>
<g
   id="g10">
</g>
<g
   id="g12">
</g>
<g
   id="g14">
</g>
<g
   id="g16">
</g>
<g
   id="g18">
</g>
<g
   id="g20">
</g>
<g
   id="g22">
</g>
<g
   id="g24">
</g>
<g
   id="g26">
</g>
<g
   id="g28">
</g>
<g
   id="g30">
</g>
<g
   id="g32">
</g>
<g
   id="g34">
</g>
<g
   id="g36">
</g>
</svg>
