<?xml version="1.0" encoding="UTF-8" standalone="no"?>
<svg
   width="32px"
   height="32px"
   viewBox="0 0 32 32"
   version="1.1"
   id="svg4"
   sodipodi:docname="trash.svg"
   inkscape:version="1.1.1 (1:1.1+202109281944+c3084ef5ed)"
   xmlns:inkscape="http://www.inkscape.org/namespaces/inkscape"
   xmlns:sodipodi="http://sodipodi.sourceforge.net/DTD/sodipodi-0.dtd"
   xmlns="http://www.w3.org/2000/svg"
   xmlns:svg="http://www.w3.org/2000/svg">
  <defs
     id="defs8" />
  <sodipodi:namedview
     id="namedview6"
     pagecolor="#ffffff"
     bordercolor="#666666"
     borderopacity="1.0"
     inkscape:pageshadow="2"
     inkscape:pageopacity="0.0"
     inkscape:pagecheckerboard="0"
     showgrid="false"
     inkscape:zoom="14.56198"
     inkscape:cx="13.940412"
     inkscape:cy="21.700345"
     inkscape:window-width="1600"
     inkscape:window-height="839"
     inkscape:window-x="0"
     inkscape:window-y="0"
     inkscape:window-maximized="1"
     inkscape:current-layer="svg4" />
  <path
     d="m 14.415746,0.4944776 c -0.676347,0 -1.367837,0.23722674 -1.857432,0.7268214 -0.489595,0.4895946 -0.726821,1.1810853 -0.726821,1.8574323 V 4.3708582 H 4.0787313 V 6.9551119 H 5.3708582 V 27.629142 c 0,2.124942 1.7514379,3.87638 3.8763806,3.87638 H 24.752761 c 2.124943,0 3.876381,-1.751438 3.876381,-3.87638 V 6.9551119 h 1.292127 V 4.3708582 H 22.168507 V 3.0787313 c 0,-0.676347 -0.237226,-1.3678377 -0.726821,-1.8574323 C 20.952091,0.73170434 20.260602,0.4944776 19.584254,0.4944776 Z m 0,2.5842537 h 5.168508 V 4.3708582 H 14.415746 Z M 7.9551119,6.9551119 H 26.044888 V 27.629142 c 0,0.716727 -0.5754,1.292127 -1.292127,1.292127 H 9.2472388 c -0.716726,0 -1.2921269,-0.5754 -1.2921269,-1.292127 z m 2.5842541,3.8763811 v 14.213395 h 2.584253 V 10.831493 Z m 5.168507,0 v 14.213395 h 2.584254 V 10.831493 Z m 5.168508,0 v 14.213395 h 2.584253 V 10.831493 Z"
     id="path2"
     style="stroke-width:1.29213" />
</svg>
